<svg id="Layer_1" data-name="Layer 1" xmlns="http://www.w3.org/2000/svg" xmlns:xlink="http://www.w3.org/1999/xlink" viewBox="0 0 600 600"><defs><style>.cls-1{fill:none;}.cls-2{fill:#828282;}.cls-3{clip-path:url(#clip-path);}.cls-4{fill:url(#linear-gradient);}.cls-5{clip-path:url(#clip-path-2);}.cls-6{fill:url(#linear-gradient-2);}.cls-7{clip-path:url(#clip-path-3);}.cls-8{fill:url(#linear-gradient-3);}.cls-9{clip-path:url(#clip-path-4);}.cls-10{fill:url(#linear-gradient-4);}</style><clipPath id="clip-path"><path class="cls-1" d="M187.45,91.94c-8.23,6.15-12.34,11.16-15,16.48-14.35,28.91-4.49,56.34-.7,64.42s13.13,24,13.13,24L292.82,18.35Z"/></clipPath><linearGradient id="linear-gradient" x1="-760.88" y1="604.9" x2="-753.78" y2="604.9" gradientTransform="matrix(-28.79, 0, 0, 28.79, -21571.18, -17309.09)" gradientUnits="userSpaceOnUse"><stop offset="0" stop-color="#a3a1fc"/><stop offset="0.49" stop-color="#a3a1fc"/><stop offset="0.56" stop-color="#9b9dfb"/><stop offset="0.66" stop-color="#8594f8"/><stop offset="0.79" stop-color="#6184f3"/><stop offset="0.87" stop-color="#4678f0"/><stop offset="1" stop-color="#4678f0"/></linearGradient><clipPath id="clip-path-2"><path class="cls-1" d="M146.13,142.93C140.75,155,135.25,168.84,133.91,182c-.94,9.31-1.51,20.37,0,43.14,2.78,35.05,20.58,66.57,45.66,84.66l113.12,78.81S222,286.71,162.32,185.3a102.36,102.36,0,0,1-12-34.58,55.61,55.61,0,0,1,.13-16.59c-1.55,2.87-4.36,8.8-4.36,8.8"/></clipPath><linearGradient id="linear-gradient-2" x1="-736.32" y1="606.32" x2="-729.22" y2="606.32" gradientTransform="matrix(0, 52.23, 52.23, 0, -31453.51, 38561.72)" gradientUnits="userSpaceOnUse"><stop offset="0" stop-color="#a3a1fc"/><stop offset="0.19" stop-color="#a3a1fc"/><stop offset="0.36" stop-color="#8ab0f9"/><stop offset="0.67" stop-color="#54cff3"/><stop offset="1" stop-color="#54cff3"/></linearGradient><clipPath id="clip-path-3"><path class="cls-1" d="M304.85,388.6,410.22,315c8.23-6.17,12.35-11.17,15-16.5,14.35-28.9,4.49-56.33.71-64.41s-13.13-24-13.13-24Z"/></clipPath><linearGradient id="linear-gradient-3" x1="-726.65" y1="581.71" x2="-719.55" y2="581.71" gradientTransform="matrix(28.43, 0, 0, -28.43, 20924.62, 16836.53)" gradientUnits="userSpaceOnUse"><stop offset="0" stop-color="#54cff3"/><stop offset="0.36" stop-color="#54cff3"/><stop offset="0.46" stop-color="#53c9f3"/><stop offset="0.59" stop-color="#50b8f2"/><stop offset="0.74" stop-color="#4c9cf1"/><stop offset="0.9" stop-color="#4678f0"/><stop offset="1" stop-color="#4678f0"/></linearGradient><clipPath id="clip-path-4"><path class="cls-1" d="M435.35,221.67c6.47,11,10.86,25.76,12,34.58a55.44,55.44,0,0,1-.13,16.59c1.55-2.87,4.36-8.8,4.36-8.8,5.39-12.1,10.9-25.91,12.22-39.09.94-9.31,1.51-20.37,0-43.13-2.78-35.05-20.59-66.58-45.65-84.67L305,18.34s70.68,101.91,130.37,203.33"/></clipPath><linearGradient id="linear-gradient-4" x1="-730.55" y1="609.07" x2="-723.45" y2="609.07" gradientTransform="matrix(0, 43.77, 43.77, 0, -26275.26, 31992.11)" gradientUnits="userSpaceOnUse"><stop offset="0" stop-color="#a3a1fc"/><stop offset="0.4" stop-color="#a3a1fc"/><stop offset="0.61" stop-color="#8ab6fd"/><stop offset="1" stop-color="#52e5ff"/></linearGradient></defs><title>ENS_Full-logo_Color</title><path class="cls-2" d="M4.86,502.53V434a.34.34,0,0,1,.35-.35H48.72a.35.35,0,0,1,.36.35v8.72a.36.36,0,0,1-.36.35H15.35v20.21H43.76a.34.34,0,0,1,.35.34v8.63a.34.34,0,0,1-.35.35H15.35v20.8H48.72a.35.35,0,0,1,.36.35v8.72a.35.35,0,0,1-.36.35H5.21a.34.34,0,0,1-.35-.35"/><path class="cls-2" d="M100.45,443.13v59.4a.34.34,0,0,1-.35.35h-9.8a.35.35,0,0,1-.35-.35v-59.4H71.27a.35.35,0,0,1-.35-.35V434a.35.35,0,0,1,.35-.35h47.88a.35.35,0,0,1,.35.35v8.72a.35.35,0,0,1-.35.35Z"/><path class="cls-2" d="M224.51,502.53V434a.34.34,0,0,1,.35-.35h43.52a.34.34,0,0,1,.35.35v8.72a.35.35,0,0,1-.35.35H235v20.21h28.4a.34.34,0,0,1,.35.34v8.63a.34.34,0,0,1-.35.35H235v20.8h33.37a.34.34,0,0,1,.35.35v8.72a.35.35,0,0,1-.35.35H224.86a.34.34,0,0,1-.35-.35"/><path class="cls-2" d="M182.35,502.57V472.69H154.28v29.87a.35.35,0,0,1-.35.35h-9.8a.35.35,0,0,1-.36-.35V434.08a.35.35,0,0,1,.36-.35h9.8a.35.35,0,0,1,.35.35v29.19h28.08V434.08a.35.35,0,0,1,.35-.35h9.8a.35.35,0,0,1,.35.35v68.48a.35.35,0,0,1-.35.35h-9.8a.35.35,0,0,1-.35-.35"/><path class="cls-2" d="M476.33,504.38a63.31,63.31,0,0,1-24.59-5.44.33.33,0,0,1-.18-.31V434.08a.35.35,0,0,1,.35-.35h9.79a.35.35,0,0,1,.35.35v56.83s5.2,2.48,14.28,2.48,14.38-2.48,14.38-2.48V434.08a.35.35,0,0,1,.35-.35h9.8a.35.35,0,0,1,.35.35v64.54a.32.32,0,0,1-.18.31,64.11,64.11,0,0,1-24.7,5.44"/><path class="cls-2" d="M582.32,502.57v-45.9l-15.84,33.51a.36.36,0,0,1-.32.2h-7.33a.36.36,0,0,1-.31-.19l-16.23-33.52v45.9a.35.35,0,0,1-.35.35h-9.8a.35.35,0,0,1-.35-.35V434.08a.35.35,0,0,1,.35-.35h9.92a.33.33,0,0,1,.31.2l20.12,42.84,19.73-42.84a.34.34,0,0,1,.31-.2h9.92a.35.35,0,0,1,.35.35v68.48a.35.35,0,0,1-.35.35h-9.8a.35.35,0,0,1-.35-.35"/><path class="cls-2" d="M340.06,502.91h10.88a.35.35,0,0,0,.29-.54L332,473.16h11.55a.31.31,0,0,0,.28-.16A36.77,36.77,0,0,0,349.44,454c0-10.22-5.19-18.81-6-20.06a.34.34,0,0,0-.29-.16h-44.6a.35.35,0,0,0-.35.35v68.48a.35.35,0,0,0,.35.35h9.8a.35.35,0,0,0,.36-.35v-59.4h27.44s3.1,3.7,3.1,10.88-2.8,10.79-2.8,10.79H316.15a.35.35,0,0,0-.29.54l23.91,37.39a.34.34,0,0,0,.29.16"/><path class="cls-2" d="M424.31,493.49H390.94v-20.8h28.41a.34.34,0,0,0,.35-.35v-8.63a.34.34,0,0,0-.35-.35H390.94V443.16h33.37a.35.35,0,0,0,.35-.35v-8.72a.35.35,0,0,0-.35-.35H380.79a.35.35,0,0,0-.35.35v68.48a.34.34,0,0,0,.35.35h43.52a.34.34,0,0,0,.35-.35v-8.72a.34.34,0,0,0-.35-.35"/><path class="cls-2" d="M71,583.53H64.3a.32.32,0,0,1-.28-.15l-19-29v28.8a.33.33,0,0,1-.33.33H37.24a.33.33,0,0,1-.33-.33V538.62a.33.33,0,0,1,.33-.33h6.69a.35.35,0,0,1,.28.15l19,28.93V538.62a.34.34,0,0,1,.33-.33H71a.34.34,0,0,1,.33.33V583.2a.34.34,0,0,1-.33.33"/><path class="cls-2" d="M123.47,583.53h-7.92a.34.34,0,0,1-.31-.22l-2.94-8.58H96l-2.93,8.58a.33.33,0,0,1-.31.22H84.87a.32.32,0,0,1-.31-.44l16.35-44.6a.34.34,0,0,1,.31-.21h5.89a.35.35,0,0,1,.31.21l16.35,44.6a.33.33,0,0,1-.31.44m-25-15.9H110l-5.64-16.51Z"/><path class="cls-2" d="M176.77,583.53h-7.43a.33.33,0,0,1-.33-.33V556.74L160.2,575.4a.34.34,0,0,1-.3.19h-5.42a.35.35,0,0,1-.3-.19l-9.07-18.73V583.2a.33.33,0,0,1-.33.33h-7.43a.33.33,0,0,1-.33-.33V538.62a.33.33,0,0,1,.33-.33h7.28a.33.33,0,0,1,.3.19l12.24,26.07,12-26.07a.33.33,0,0,1,.3-.19h7.28a.33.33,0,0,1,.33.33V583.2a.33.33,0,0,1-.33.33"/><path class="cls-2" d="M224.77,583.53H196a.34.34,0,0,1-.33-.33V538.62a.34.34,0,0,1,.33-.33h28.77a.33.33,0,0,1,.33.33v6.74a.33.33,0,0,1-.33.33h-21v11.36h17.88a.33.33,0,0,1,.33.33v6.69a.34.34,0,0,1-.33.33H203.76v11.72h21a.33.33,0,0,1,.33.33v6.74a.33.33,0,0,1-.33.33"/><path class="cls-2" d="M345.75,583.53H317a.33.33,0,0,1-.33-.33V538.62a.33.33,0,0,1,.33-.33h28.78a.33.33,0,0,1,.33.33v6.74a.33.33,0,0,1-.33.33h-21v11.36h17.88a.32.32,0,0,1,.33.33v6.69a.33.33,0,0,1-.33.33H324.73v11.72h21a.33.33,0,0,1,.33.33v6.74a.33.33,0,0,1-.33.33"/><path class="cls-2" d="M428.66,583.53h-5.74a.34.34,0,0,1-.31-.23L408,538.72a.33.33,0,0,1,.31-.44H416a.34.34,0,0,1,.31.23l9.49,30,9.49-30a.32.32,0,0,1,.31-.23h7.84a.33.33,0,0,1,.31.44L429,583.3a.32.32,0,0,1-.31.23"/><path class="cls-2" d="M464.59,583.53h-7.43a.33.33,0,0,1-.33-.33V538.62a.33.33,0,0,1,.33-.33h7.43a.33.33,0,0,1,.33.33V583.2a.33.33,0,0,1-.33.33"/><path class="cls-2" d="M558.19,583.53H529.41a.33.33,0,0,1-.33-.33V538.62a.33.33,0,0,1,.33-.33h28.78a.33.33,0,0,1,.33.33v6.74a.33.33,0,0,1-.33.33h-21v11.36h17.88a.32.32,0,0,1,.33.33v6.69a.33.33,0,0,1-.33.33H537.17v11.72h21a.33.33,0,0,1,.33.33v6.74a.33.33,0,0,1-.33.33"/><path class="cls-2" d="M511.87,583.6H486.31a.31.31,0,0,1-.3-.18c-.55-1.31-3.71-9.45-3.71-22.56s3.16-21.16,3.7-22.45a.31.31,0,0,1,.3-.19h25.57a.33.33,0,0,1,.33.33v6.9a.33.33,0,0,1-.33.33h-20.1a62.12,62.12,0,0,0-1.58,15.07A64,64,0,0,0,491.77,576h20.1a.33.33,0,0,1,.33.33v6.9a.33.33,0,0,1-.33.33"/><path class="cls-2" d="M400,583.59h-8.21a.33.33,0,0,1-.28-.15l-16.06-25.11a.33.33,0,0,1,.28-.5H387.3a11.51,11.51,0,0,0,1.54-6.2,10.88,10.88,0,0,0-1.72-6.27H370.81v37.9a.33.33,0,0,1-.33.33h-7.42a.33.33,0,0,1-.33-.33V538.5a.33.33,0,0,1,.33-.32h29.6l.09.12a27.22,27.22,0,0,1,4,13.27,26.58,26.58,0,0,1-3.73,13l-.09.13h-5.36Z"/><path class="cls-2" d="M282.2,584.86a59.74,59.74,0,0,1-15.62-2.29.31.31,0,0,1-.21-.31v-7.94a.32.32,0,0,1,.33-.33h7.67v2.48a30.87,30.87,0,0,0,15.6,0v-9.21l-23.37-8.19a.32.32,0,0,1-.22-.31V539.88a.31.31,0,0,1,.21-.31,58.73,58.73,0,0,1,15.55-2.29,59.34,59.34,0,0,1,15.6,2.29.31.31,0,0,1,.23.31v7.94a.33.33,0,0,1-.33.33H290v-2.48a33.54,33.54,0,0,0-7.84-1,32.83,32.83,0,0,0-7.75,1l0,8.63,23.34,8.19a.34.34,0,0,1,.22.31v19.47a.31.31,0,0,1-.22.31,59,59,0,0,1-15.55,2.29"/><g class="cls-3"><rect class="cls-4" x="114.18" y="-2.43" width="222.55" height="220.07" transform="translate(-6.52 200.33) rotate(-47.3)"/></g><g class="cls-5"><rect class="cls-6" x="65.06" y="115.66" width="294.96" height="291.45" transform="translate(-123.36 235.7) rotate(-46.51)"/></g><g class="cls-7"><rect class="cls-8" x="260.45" y="192.91" width="223.51" height="212.87" transform="translate(-86.74 431.7) rotate(-54.89)"/></g><g class="cls-9"><rect class="cls-10" x="235.68" y="18.05" width="298.89" height="255.08" transform="translate(86.41 428.94) rotate(-64.2)"/></g></svg>